<svg xmlns="http://www.w3.org/2000/svg" viewBox="0 0 512 512" role="img" aria-label="Transcriptor icon">
  <rect width="512" height="512" rx="96" fill="#0f172a"/>
  <path d="M160 208a24 24 0 0 1 24-24h144a24 24 0 0 1 0 48H184a24 24 0 0 1-24-24zm0 96a24 24 0 0 1 24-24h88a24 24 0 0 1 0 48h-88a24 24 0 0 1-24-24z" fill="#f8fafc"/>
  <circle cx="352" cy="304" r="56" fill="#22c55e"/>
  <path d="M337 304l10 10 20-20" fill="none" stroke="#052e16" stroke-width="12" stroke-linecap="round" stroke-linejoin="round"/>
</svg>
